<?xml version="1.0" encoding="utf-8"?>
<!-- Generator: Adobe Illustrator 22.1.0, SVG Export Plug-In . SVG Version: 6.00 Build 0)  -->
<svg version="1.1" id="Calque_1" xmlns="http://www.w3.org/2000/svg" xmlns:xlink="http://www.w3.org/1999/xlink" x="0px" y="0px"
	 viewBox="0 0 1000 1000" style="enable-background:new 0 0 1000 1000;" xml:space="preserve">
<style type="text/css">
	.st0{fill:#5F452C;}
</style>
<g>
	<path class="st0" d="M579.5,731.4c2-5.9,5.6-11.2,10.8-15.9c5.1-4.8,10.9-8.1,17.4-9.9c1.4-0.5,2.5-0.8,3.3-0.9
		c0.8-0.1,1.8-0.2,2.9-0.2c1.2,0,2.2,0.1,2.8,0.2c0.6,0.1,1.5,0.5,2.9,1c2.5,1,4.2,1.8,5.1,2.3c0.8,0.5,1.5,1.2,2.1,2.3
		c1,1.7,1.5,3.3,1.6,4.7c0,0.2,0,0.5,0,0.8c0,1.1-0.2,2.1-0.5,3.1c-0.7,2.2-1.9,3.9-3.6,5.1c-1.7,1.1-2.7,1.7-3.1,1.7
		c-0.4,0-1.1-0.2-2.2-0.6c-1-0.4-1.6-0.8-1.8-1.1c-0.2-0.2-0.2-0.4,0-0.6c0.2-0.2,0.6-0.5,1.2-1c0.7-0.5,1.6-1.8,2.8-3.9
		c1.3-2,1.7-4,1.2-6c-0.3-1.2-0.7-2-1.2-2.3c-0.5-0.2-1.6-0.4-3.3-0.4c-1.1,0-2.1,0.1-2.9,0.2c-0.7,0.1-1.7,0.4-2.8,0.8
		c-5.6,1.7-10.6,4.4-15.3,8c-4.6,3.6-7.6,7.6-9.2,12.2c-1.1,3.1-1.8,5.6-2.1,7.6c-0.3,2,0,3.6,0.9,4.8c0.9,1.3,2.2,2.3,3.9,3.2
		c1.8,0.8,3.8,1.5,5.9,2.3c4,1.3,8.1,2.7,12.2,4.4c4.2,1.7,7.1,4.6,8.7,8.8c0.6,1.5,0.6,3.3,0.1,5.5s-1.5,4.2-2.9,6.1
		c-0.7,1-1.6,2-2.7,2.8c-1.1,0.8-2.2,1.5-3.4,2c-1,0.4-2,0.6-3.1,0.7c-0.5,0.1-1,0.1-1.6,0.1c-0.6,0-1.1,0-1.7-0.1
		c-2.4-0.2-4.6-0.7-6.5-1.3c-2-0.6-4-1.9-6.1-4c-1.5-1.4-2.5-2.9-3.2-4.5c-0.7-1.7-0.2-3.1,1.2-4.2c0.8-0.6,1.8-0.8,3.1-0.5
		c1.1,0.2,2.2,0.8,3.3,1.8c0.4,0.5,0.6,0.8,0.6,1c0.1,0.2,0,0.6-0.2,1.2c-0.7,1.9-0.5,3.4,0.4,4.5c0.9,1.2,2.4,1.8,4.4,1.7
		c1.7-0.1,3.2-0.4,4.4-0.9c1.3-0.5,2.4-1.1,3.2-2c1.6-1.5,2.7-3.2,3.2-5.2c0.5-1.9,0.7-3.4,0.6-4.3c-0.2-1.4-0.5-2.5-1-3.3
		c-0.6-0.8-1.4-1.7-2.6-2.4c-2.6-1.7-5.3-2.8-8-3.4c-2.8-0.6-5.5-1.4-8.2-2.4c-1.5-0.5-2.9-1.2-4.3-2.1c-1.4-0.8-2.7-2-3.9-3.3
		c-2.2-2.3-3.5-4.5-3.9-6.6c-0.1-0.6-0.1-1.2-0.1-1.9C578.4,735.4,578.7,733.5,579.5,731.4z"/>
	<path class="st0" d="M637.6,746.6c0.6,0.3,1.4,0.6,2.2,0.9c0.8,0.3,1.5,0.5,2,0.6c0.7,0.2,1.3,0.4,1.8,0.7c0.5,0.3,1.1,0.7,1.7,1.3
		c1.3,1.1,2.2,2.1,2.6,3c0.4,0.8,0.6,1.8,0.5,3c0,0.2,0,0.4,0,0.5c0,1-0.1,1.8-0.2,2.3c-0.2,0.5-0.5,1.1-1.1,1.9
		c-0.8,1.1-1.6,2-2.4,2.5c-0.7,0.5-1.9,1-3.5,1.4c-1,0.2-1.8,0.4-2.3,0.5c-0.2,0.1-0.3,0.1-0.5,0.1c-0.3,0-0.7-0.1-1-0.2
		c-1.6-0.4-3.1-1-4.3-1.9c-1.2-1-2.2-2.2-3.1-3.7c-0.5-0.8-0.8-1.5-0.9-2.1c-0.2-0.5-0.2-1.4-0.2-2.5c0-0.1,0-0.1,0-0.2
		c0-0.8,0-1.6,0.1-2.3c0.1-0.7,0.2-1.2,0.4-1.5c0.1-0.3,0.2-0.7,0.5-1.1c0.2-0.4,0.4-0.8,0.6-1.1c0.5-0.6,1.2-1.3,2.2-2
		c1-0.7,1.7-1.1,2.1-1.1c0.1,0,0.4,0.1,1,0.4C636.2,746.1,636.9,746.3,637.6,746.6z M635.6,755.3c-0.2,0.4-0.3,0.8-0.4,1.1
		c-0.1,0.3-0.1,0.5-0.1,0.5s0,0.2,0.1,0.5c0,0.3,0,0.7,0.1,1.1c0.1,0.4,0.2,0.8,0.4,1.2c0.2,0.3,0.3,0.5,0.5,0.5
		c0.1,0.1,0.2,0.1,0.5,0.1c0.2,0,0.4-0.1,0.7-0.2c0.5-0.2,1.1-0.5,1.8-1.1c0.8-0.6,1.4-1.3,1.7-2c0.3-0.7,0.5-1.7,0.6-3
		c0-0.4,0-0.7,0-1c0-0.4,0-0.7-0.1-0.9c-0.1-0.3-0.4-0.7-1-1.1c-0.3-0.2-0.7-0.4-1-0.5c-0.3-0.2-0.5-0.3-0.6-0.3
		c-0.3,0-0.9,0.6-1.8,1.9C636.3,753.5,635.8,754.5,635.6,755.3z"/>
	<path class="st0" d="M650.7,754.6c0.7-2.2,1.6-4.5,2.9-6.7c1.3-2.2,2.8-4.1,4.4-5.7c0.9-1,2.1-2,3.7-3c1.3-0.8,2.2-1.2,2.7-1.3
		c0.1,0,0.1,0,0.1,0.1c0.2,0.1,0.4,0.2,0.9,0.5c0.5,0.2,1,0.5,1.5,0.8c1.5,1,2.2,1.8,2.2,2.6c-0.1,0.8-0.9,1.7-2.4,2.4
		c-2,1-4,2.8-5.7,5.4c-1.8,2.6-3.1,5.3-3.8,8.1c-0.2,0.8-0.2,1.4-0.2,1.7c0,0.3,0.1,0.6,0.4,1c0.6,0.9,1.7,1,3.3,0.4
		c1.6-0.7,3.8-2.1,6.5-4.3c1.1-0.8,2.4-1.9,4-3.2c1.6-1.3,3.1-2.3,4.4-3.3c1.9-1.4,3.1-2.3,3.8-2.7c0.7-0.4,1.3-0.6,1.6-0.5
		c0.6,0.1,1.3,0.5,2.1,1.1c0.9,0.5,1.3,1,1.3,1.3c0,0.2-0.5,0.8-1.6,1.7c-1,0.9-2.3,2-4,3.4c-0.6,0.5-1.2,1-1.8,1.5
		c-0.6,0.6-1,1-1.2,1.3c-0.7,0.9-2.5,2.4-5.3,4.3c-2.7,2-4.5,3.1-5.4,3.4c-1.1,0.4-2.4,0.7-3.9,0.7c-0.2,0-0.3,0-0.4,0
		c-1.3,0-2.4-0.2-3.4-0.5c-0.4-0.1-0.9-0.4-1.6-0.8c-0.7-0.4-1.2-0.7-1.7-1.1c-0.7-0.5-1.3-1-1.6-1.4c-0.3-0.4-0.7-1.1-1-1.9
		c-0.4-0.9-0.7-1.9-0.7-3c-0.1-0.4-0.1-0.7-0.1-1C650.4,755.6,650.5,755.1,650.7,754.6z"/>
	<path class="st0" d="M679.1,735.8c0.4-0.4,0.9-0.5,1.3-0.5h0.1c0.5,0,1.4,0.2,2.7,0.7c1.5,0.5,2.4,1,2.8,1.4
		c0.4,0.5,0.6,1.4,0.7,2.7c0,0.4,0,0.8,0,1.1c0,1.2-0.2,2-0.6,2.4c-0.2,0.2-0.6,0.4-1.1,0.5c-0.5,0-1.1-0.1-1.7-0.4
		c-1-0.3-1.8-0.8-2.4-1.5c-0.7-0.7-1.3-1.6-1.7-2.7c-0.5-1.1-0.7-1.9-0.7-2.3C678.5,736.7,678.7,736.2,679.1,735.8z M679.7,745.4
		c0.1-0.1,0.2-0.1,0.2-0.1c0.2,0,0.4,0.1,0.7,0.2c0.4,0.1,0.8,0.2,1.2,0.4c0.5,0.2,0.9,0.3,1.3,0.5c0.5,0.1,0.8,0.2,1,0.2
		c0.6,0.1,1.1,0.4,1.7,1c0.7,0.6,1,1.2,1.1,1.9c0.1,0.3,0.1,0.9,0.1,1.7c0.1,0.8,0.1,1.7,0.1,2.5c0,0.8,0,2,0.1,3.5
		c0.1,1.5,0.2,2.9,0.2,4.1c0.1,2,0.1,3.4,0.1,4.2c0,0.2,0,0.5,0,0.6c-0.1,0.5-0.3,0.8-0.6,1c-0.3,0.1-0.7,0.2-1.1,0.2
		c-0.5,0-1-0.1-1.5-0.3c-1.1-0.3-2.2-0.9-3.4-1.8c-0.2-0.2-0.7-0.5-1.2-0.8c0-1.1,0-2.8,0-5c-0.1-3.9-0.2-7-0.2-9.2
		c-0.1-2.3-0.2-3.6-0.4-3.9c0-0.2,0-0.3,0-0.5v-0.1C679.4,745.5,679.5,745.4,679.7,745.4z"/>
	<path class="st0" d="M707.8,740.2c0.8,0.2,1.5,0.4,2.2,0.7c0.7,0.3,1.8,0.9,3.2,1.8c1.5,1,2.1,2.4,1.6,4.2c-0.6,1.8-2.2,4-4.8,6.5
		c-1.1,1.1-2.5,2.2-4,3.2c-1.5,1-2.8,1.7-4,2.1c-0.4,0.1-0.8,0.3-1.1,0.5c-0.2,0.1-0.4,0.2-0.4,0.3c0,0.5,0.7,1.2,2.1,2.1
		c1.4,0.8,3.5,0.9,6.2,0.1c3-0.8,5.4-2.3,7.2-4.4c1.9-2,2.9-3.1,2.9-3.2c0.7-1.1,1.8-1.3,3.4-0.5c1.5,0.8,2.4,1.3,2.4,1.3
		c0,0.1,0,0.2,0,0.3c0,0.4-0.4,1.3-1.3,2.5c-1.1,1.5-2.7,3-4.8,4.5c-1.2,0.8-2.6,1.6-4,2.3c-1.5,0.7-3.1,1.3-4.8,1.6
		c-0.9,0.2-1.8,0.3-2.8,0.3c-1.1,0-2.2-0.1-3.4-0.4c-2.2-0.4-4-1.2-5.5-2.3c-2-1.6-3.4-3.4-4.2-5.6c-0.3-1.2-0.5-2.5-0.5-3.9
		c0-1.1,0.1-2.4,0.4-3.7c0.4-1.9,1.3-3.6,2.7-5.1c1.4-1.6,3.1-2.9,5.1-3.9c1.5-0.7,2.6-1.1,3.3-1.3c0.2-0.1,0.5-0.1,0.9-0.1
		C706.4,740,707.1,740.1,707.8,740.2z M705.5,745.7c-1.1,0.7-2.2,1.6-3.4,2.9c-1.1,1.2-1.8,2.2-2.1,2.9c-0.2,0.7-0.2,1.2-0.2,1.6
		v0.1c0,0.5,0.1,0.7,0.4,0.7c0.9,0,2.7-1.3,5.5-4c2.8-2.6,4.2-4.4,4.2-5.3c0-0.1,0-0.2-0.1-0.3c-0.2-0.1-0.3-0.1-0.5-0.1
		c-0.4,0-0.9,0.1-1.6,0.4C706.9,744.9,706.2,745.3,705.5,745.7z"/>
	<path class="st0" d="M745.9,809c-1.6,0-3-0.2-4.3-0.5c-2.6-0.5-4.5-1.1-5.7-1.7c-1.3-0.7-2.9-1.7-4.7-3.1c-1.7-1.3-3-2.5-3.8-3.4
		c-0.8-1.1-1.7-2.4-2.7-4.1c-0.9-1.7-1.7-3.4-2.3-5.2c-0.7-1.7-1.5-5.9-2.3-12.6c-0.8-6.8-0.7-15.2,0.4-25.3c0.2-2.5,0.6-5,1-7.7
		c0.4-2.6,0.9-5.1,1.3-7.5c0.9-4.5,1.8-8.4,2.6-11.6l1.1-4.8c-0.2-0.2-1.3-0.2-3.5,0.1c-2.1,0.2-4.2,0.2-6.4,0.2
		c-1-0.1-2.2-0.4-3.5-1c-1.4-0.6-2.1-1.2-2.1-1.9V719c0.1-0.2,0.2-0.5,0.5-0.9c0.2-0.3,0.5-0.5,1.1-0.5c0.4,0,0.9,0,1.5,0
		c0.7-0.1,1.2-0.1,1.7-0.2c0.4,0,2.5-0.1,6.2-0.4c3.8-0.2,5.8-0.5,6.2-0.7c0.2-0.2,0.3-0.6,0.5-1.2c0.2-0.7,0.4-1.6,0.6-2.8
		c0.2-1.1,0.5-2.3,0.7-3.3c0.2-1,0.4-1.7,0.5-2c0.2-0.2,0.3-0.5,0.4-0.9c0.1-0.4,0.1-0.7,0.1-0.9c0-0.7,0.3-1,0.9-1.1
		c0.1,0,0.2,0,0.2-0.1c0.6,0,1.5,0.2,2.8,0.5c2.1,0.7,3.3,1.2,3.5,1.7c0.3,0.5,0.1,1.7-0.6,3.5c-0.3,0.6-0.6,1.4-0.9,2.3
		c-0.2,0.9-0.4,1.7-0.5,2.3c-0.1,0.5-0.2,1.3-0.5,2.4c0.7,0,1.8,0,3.1-0.1c0.8,0,2,0,3.4-0.1s2.8-0.1,3.9-0.2c2-0.1,5.2-0.3,9.7-0.5
		c4.4-0.1,9.9,0,16.6,0.4c1.1,0,2.9,0,5.3,0c0.3,0.2,0.8,0.6,1.3,1c1.1,0.7,1.8,1.5,2.1,2.3c0.2,0.3,0.2,0.6,0.2,0.8
		c0,0.4-0.2,0.6-0.6,0.7c-0.1,0.1-0.7,0.1-2,0.1c-1.2,0-2.6,0-4.2,0c-4.1-0.1-8.6-0.2-13.7-0.2c-5.1,0.1-10,0.2-14.4,0.4
		c-2.1,0.1-4.2,0.1-6.1,0.2c-1.9,0.1-3.1,0.1-3.7,0.2c-0.9,0-1.5,0.1-1.8,0.2c-0.2,0.1-0.5,0.3-0.7,0.6c-1.1,4.9-2.1,9.7-3.1,14.5
		c-1,4.8-1.8,10.5-2.3,17.2c-0.5,5.7-0.8,10.7-0.9,14.8c-0.1,4.2,0,7.8,0.1,10.8c0.4,5.6,1,9.5,1.8,11.8c0.9,2.2,1.5,3.7,2,4.5
		c1.5,2.3,3.4,4.1,5.5,5.3c2.1,1.3,4.4,1.4,6.4,2.3C743.9,803.8,747.4,809,745.9,809z"/>
	<path class="st0" d="M767.9,740.3c1.5,0.5,2.5,1,2.9,1.6c0.4,0.6,0.5,1.6,0.4,3c-0.1,0.5-0.2,1.3-0.2,2.3c0,1,0,2,0,2.9
		c0,1.8,0.1,2.9,0.2,3.2c0.2,0.3,0.8,0.1,1.7-0.6c0.5-0.4,1.5-1.1,3.2-2.1c1.6-1,3.4-2,5.3-3.1c0.6-0.4,1.1-0.7,1.5-1
		c0.5-0.3,0.7-0.5,0.7-0.5c0-0.3,0.4-0.7,1.2-1.3c0.9-0.5,1.5-0.8,1.8-0.7c0.2,0,0.7,0.1,1.2,0.2c0.6,0.2,1.1,0.3,1.7,0.5
		c0.8,0.2,1.4,0.5,1.7,0.7c0.4,0.2,0.7,0.4,0.7,0.6c0.2,0.4,0.2,0.7,0.2,0.9c0,0.1,0,0.2,0,0.4c-0.2,0.2-0.6,0.5-1.3,0.9
		c-1.2,0.5-3.3,1.8-6.4,3.6c-2.9,1.9-5,3.3-6.2,4.2c-0.7,0.5-1.3,1-2,1.4c-0.7,0.4-1.1,0.7-1.3,0.8c-0.2,0.1-0.6,0.3-1,0.7
		c-0.4,0.4-0.8,0.8-1.2,1.3c-0.3,0.4-0.8,0.9-1.3,1.6c0.2,1.2,0.5,3,0.9,5.4c0.2,1.1,0.3,2.1,0.5,3c0.1,0.8,0.2,1.7,0.4,2.4
		c0.3,2.2,0.6,4.2,0.7,6.1c0.2,1.8,0.4,4.4,0.6,7.8c0.1,0.7,0.1,1.7,0,3c-0.1,1.3-0.2,2.6-0.4,3.7c-0.5,3.1-1.2,5.5-2.1,7.3
		c-1,1.7-2.5,3.4-4.7,5.1c-1.1,0.8-2,1.4-2.7,1.7c-0.7,0.3-1.8,0.6-3.2,0.8c-1,0.1-1.9,0.2-2.7,0.2c-0.6,0-1.1,0-1.6-0.1
		c-1.2-0.2-2.6-0.6-4-1.2c-1.5-0.5-3.3-1.5-5.4-2.9c-2.2-1.4-3.4-2.4-3.7-3c-1-1.9-1.7-4-2.1-6.2c-0.2-1-0.2-1.9-0.2-2.7
		c0-1,0.2-1.8,0.5-2.4c0.2-0.4,0.4-1,0.6-1.6c0.2-0.7,0.5-1.3,0.6-1.8c0.5-1.4,1.3-3.2,2.4-5.2c1.1-2,2.2-3.6,3.1-4.6
		c1.9-2.2,3.6-4.2,5.1-6s2.4-2.7,2.6-2.8c0.2-0.1,0.6-0.6,1.5-1.4c0.7-0.8,1.8-2,3.3-3.6c0.5-0.5,1-1,1.5-1.4c0.4-0.5,0.7-0.8,1-1
		c0.2-0.4,0.4-1,0.4-2c0.1-0.9,0-2-0.4-3.4c-0.1-0.2-0.2-0.6-0.4-1.1c-0.2,0.2-0.6,0.6-1.1,1.2c-0.3,0.3-0.7,0.6-1.1,1
		c-0.4,0.4-0.8,0.6-1.1,0.8c-0.2,0.2-0.7,0.5-1.2,0.9c-0.5,0.5-1,0.9-1.5,1.4c-0.5,0.4-1.1,0.9-1.7,1.4c-0.7,0.5-1.2,0.8-1.7,1.1
		c-0.9,0.5-1.5,0.8-1.8,0.8c-0.4,0.1-1.1,0-2.2-0.2c-1.9-0.3-3.4-1-4.5-2c-1.2-1-2-2.2-2.3-3.7c-0.2-0.8-0.2-2.4,0-4.6
		c0.2-2.2,0.4-3.8,0.7-4.7c0.5-1.4,0.9-2.3,1.2-2.8c0.3-0.5,0.6-0.7,1-0.7c0.2-0.1,0.5,0,1.1,0.3c0.7,0.2,1.3,0.4,2,0.7
		c1.3,0.6,2.1,1.1,2.3,1.5c0.2,0.5,0.1,1.3-0.4,2.5c-0.3,0.8-0.7,2.2-1,4c-0.3,1.7-0.4,2.9-0.2,3.4c0.1,0.4,0.2,0.7,0.5,0.7
		c0.2,0,0.4-0.2,0.6-0.5c0.1-0.2,0.3-0.4,0.6-0.7c0.3-0.3,0.7-0.6,1.1-0.8c0.9-0.6,1.9-1.5,2.9-2.7c1.1-1.2,1.9-2.1,2.2-2.7
		c0.1-0.2,0.2-0.5,0.5-0.9c0.2-0.3,0.3-0.5,0.5-0.7c0.4-0.4,1.2-1.5,2.3-3.3c1.1-1.7,1.9-3,2.3-3.8c0.2-0.4,0.4-0.7,0.6-0.8
		c0.2-0.2,0.4-0.3,0.6-0.3c0.1,0,0.2,0,0.2,0c0.2,0,0.6,0.1,1.1,0.2C766.6,739.9,767.2,740.1,767.9,740.3z M765,768.1
		c-0.5,0.4-1.9,2-4.2,4.6c-2.3,2.6-3.6,4.2-3.9,4.9c-0.2,0.3-0.5,0.7-0.9,1.2c-0.3,0.5-0.7,0.9-1,1.3c-0.3,0.4-0.7,0.8-1.1,1.4
		c-0.3,0.5-0.6,1-0.9,1.4c-0.4,0.8-0.8,1.7-1.2,2.7c-0.4,1-0.8,2-1.1,3c-0.6,1.9-1,3.8-1.2,5.5c-0.2,0.9-0.2,1.7-0.2,2.3
		c0,0.6,0,1.1,0.1,1.4c0.2,0.2,0.3,0.6,0.4,1c0.1,0.4,0.2,0.7,0.2,1c0.1,0.8,0.7,1.7,1.8,2.6c1.1,0.9,2.2,1.4,3.3,1.5
		c0.2,0,0.3,0,0.4,0c1.2,0,2.7-0.5,4.5-1.4c1.9-1.1,3.4-2.3,4.5-3.7c0.5-0.7,0.9-1.4,1.1-2.1c0.3-0.7,0.7-1.9,1-3.5
		c0.5-1.9,0.8-3.3,0.9-4.2c0-0.5,0-1.1,0-1.9c0-0.9,0-2,0-3.3c-0.1-1.5-0.2-3-0.2-4.5c-0.1-1.5-0.2-2.6-0.2-3.3
		c-0.2-2.1-0.5-4-0.7-5.6c-0.2-1.6-0.4-2.4-0.5-2.4v-0.1c-0.1,0-0.2,0-0.4,0.1C765.3,767.9,765.1,767.9,765,768.1z"/>
</g>
<g>
	<g>
		<path class="st0" d="M405.7,398.4h-14.1v83.5v0.1h-6.4v-0.1v-83.5h-14.1V392h34.6V398.4z"/>
	</g>
	<g>
		<path class="st0" d="M438.9,475.7v6.4h-24.6v-6.4h9.1v-77.4h-9.1v-6.4h24.6v6.4h-9.1v77.4H438.9z"/>
	</g>
	<g>
		<path class="st0" d="M482.5,392v89.9h-6.3h-0.1l-21.9-69.3v69.4h-6.4v-0.1V392h6.5l21.7,68.8V392H482.5z"/>
	</g>
	<g>
		<path class="st0" d="M513.8,456.9h0.1v25.1v0.1h-6.4v-25.2L492.3,392h5.8l12.7,53.7l12.5-53.7h5.8L513.8,456.9z"/>
	</g>
</g>
<g>
	<g>
		<path class="st0" d="M439.1,512.2V689h-12.5v-44.1h-42.9V689h-12.5V512.2h12.5v120.1h42.9V512.2H439.1z"/>
	</g>
	<g>
		<path class="st0" d="M517.9,521.4c6.6,6.6,9.9,14.7,9.9,24.3v109.6c0,9.5-3.3,17.5-9.9,24.1c-6.8,6.7-14.8,10.1-24.1,10.1
			c-9.3,0-17.4-3.4-24.1-10.1c-3.2-3.2-5.7-6.9-7.4-11c-1.7-4.1-2.5-8.5-2.5-13.1V545.7c0-4.7,0.8-9.1,2.5-13.2
			c1.7-4.2,4.1-7.9,7.4-11.1c6.8-6.7,14.8-10.1,24.1-10.1C503.1,511.2,511.2,514.6,517.9,521.4z M515.3,545.5
			c0-6.1-2.1-11.3-6.3-15.4c-4.2-4.2-9.3-6.3-15.2-6.3c-5.9,0-11,2.1-15.2,6.3c-4.2,4.2-6.3,9.3-6.3,15.4v109.7
			c0,6,2.1,11.1,6.3,15.3c4.2,4.3,9.2,6.4,15.2,6.4c5.9,0,11-2.1,15.2-6.4c4.2-4.3,6.3-9.4,6.3-15.3V545.5z"/>
	</g>
	<g>
		<path class="st0" d="M615.8,512v143.5c0,4.7-0.9,9.1-2.7,13.3c-1.8,4.2-4.2,7.8-7.2,11c-3.1,3.1-6.7,5.6-10.9,7.4
			c-4.2,1.8-8.6,2.7-13.3,2.7c-4.7,0-9.1-0.9-13.3-2.7c-4.2-1.8-7.8-4.2-10.9-7.4c-3.1-3.1-5.5-6.8-7.2-11
			c-1.8-4.2-2.7-8.6-2.7-13.3V512h12.5v143.7c0,6,2.1,11,6.3,15.2c4.2,4.2,9.2,6.3,15.2,6.3c5.9,0,11-2.1,15.2-6.3
			c4.2-4.2,6.3-9.3,6.3-15.2V512H615.8z"/>
	</g>
	<g>
		<path class="st0" d="M690.4,561.2v-15.9c0-5.9-2.1-11.1-6.3-15.3c-4.2-4.3-9.3-6.4-15.2-6.4c-5.9,0-11,2.1-15.2,6.4
			c-4.2,4.3-6.3,9.4-6.3,15.3V572c0,6.1,2.1,11.3,6.3,15.4c4.2,4.2,9.2,6.3,15.2,6.3v0.2c4.7,0,9.1,0.9,13.3,2.7
			c4.2,1.8,7.8,4.2,10.9,7.4c3.1,3.1,5.5,6.8,7.2,11c1.8,4.2,2.7,8.6,2.7,13.3v27c0,4.7-0.9,9.1-2.7,13.3c-1.8,4.2-4.2,7.8-7.2,11
			c-3.1,3.1-6.7,5.6-10.9,7.4c-4.2,1.8-8.6,2.7-13.3,2.7c-4.7,0-9.1-0.9-13.3-2.7c-4.2-1.8-7.8-4.2-10.9-7.4
			c-3.1-3.1-5.5-6.8-7.2-11c-1.8-4.2-2.7-8.6-2.7-13.3v-15.9h12.5v15.9c0,6,2.1,11.1,6.3,15.3c4.2,4.3,9.2,6.4,15.2,6.4
			c5.9,0,11-2.1,15.2-6.4c4.2-4.3,6.3-9.4,6.3-15.3v-27c0-5.9-2.1-11.1-6.3-15.3c-4.2-4.3-9.3-6.4-15.2-6.4c-4.7,0-9.1-0.9-13.3-2.7
			c-4.2-1.8-7.8-4.2-10.9-7.4c-3.1-3.1-5.5-6.8-7.2-11c-1.8-4.2-2.7-8.7-2.7-13.5v-26.8c0-4.7,0.9-9.1,2.7-13.3
			c1.8-4.2,4.2-7.8,7.2-11c3.1-3.1,6.7-5.6,10.9-7.4c4.2-1.8,8.6-2.7,13.3-2.7c4.7,0,9.1,0.9,13.3,2.7c4.2,1.8,7.8,4.2,10.9,7.4
			c3.1,3.1,5.5,6.8,7.2,11c1.8,4.2,2.7,8.6,2.7,13.3v15.9H690.4z"/>
	</g>
	<g>
		<path class="st0" d="M792.4,676.4V689h-55.5h-12.5V512h68v12.5h-55.5v66.1h46.3v12.5h-46.3v73.1v0.2H792.4z"/>
	</g>
</g>
<polygon class="st0" points="448.4,190.7 207.8,685.7 206.2,689 220.9,689 448.9,219.8 527.1,378.3 541.8,378.3 "/>
<polygon class="st0" points="613.7,269.2 609.3,274.2 642.2,303.1 642.2,294.3 "/>
<polygon class="st0" points="613.7,298.1 609.3,303.1 642.2,332 642.2,323.2 "/>
<polygon class="st0" points="613.7,327 609.3,332 642.2,360.9 642.2,352.1 "/>
<polygon class="st0" points="613.7,355.9 609.3,360.9 642.2,389.8 642.2,381 "/>
<polygon class="st0" points="613.7,384.8 609.3,389.8 642.2,418.7 642.2,409.9 "/>
<polygon class="st0" points="613.7,413.7 609.3,418.7 642.2,447.6 642.2,438.8 "/>
<polygon class="st0" points="610.2,261 605.8,256 577.4,280.9 577.4,289.7 "/>
<polygon class="st0" points="610.2,289.9 605.8,284.9 577.4,309.8 577.4,318.6 "/>
<polygon class="st0" points="610.2,318.8 605.8,313.8 577.4,338.7 577.4,347.5 "/>
<polygon class="st0" points="610.2,347.7 605.8,342.7 577.4,367.6 577.4,376.4 "/>
<polygon class="st0" points="610.2,376.6 605.8,371.6 577.4,396.5 577.4,405.3 "/>
<polygon class="st0" points="610.2,405.5 605.8,400.5 577.4,425.4 577.4,434.2 "/>
<path class="st0" d="M603.3,258.3l0,265c0,2.7,2.2,5,5,5h2.6c2.7,0,5-2.2,5-5l0-276.1L603.3,258.3z"/>
<polygon class="st0" points="603.2,238 603.3,238.1 603.3,238 "/>
</svg>
