<?xml version="1.0" encoding="iso-8859-1"?>
<!-- Generator: Adobe Illustrator 22.0.1, SVG Export Plug-In . SVG Version: 6.00 Build 0)  -->
<svg version="1.1" xmlns="http://www.w3.org/2000/svg" xmlns:xlink="http://www.w3.org/1999/xlink" x="0px" y="0px"
	 viewBox="0 0 128 128" style="enable-background:new 0 0 128 128;" xml:space="preserve">
<g id="_x31_0">
	<path style="fill:transparent;" d="M68.836,87.906h24.414l14.786,15.302c1.324,1.37,3.643,0.433,3.643-1.473V87.906h6.357
		c4.681,0,8.476-3.795,8.476-8.476V41.287c0-4.681-3.795-8.476-8.476-8.476H58.648c-2.317,0-5.908,1.653-6.331,3.931l-0.139,8.484
		h9.038c4.458,0,8.059,3.63,8.014,8.088C69.103,65.895,68.836,87.906,68.836,87.906z"/>
	<path style="fill:#3cc611;" d="M118.035,31.322h-6.987V20.205c0-5.494-4.471-9.964-9.965-9.964H48.108
		c-5.494,0-9.965,4.47-9.965,9.964v23.533H9.965C4.471,43.738,0,48.208,0,53.702v38.143c0,5.494,4.471,9.964,9.965,9.964h6.987
		v12.342c0,1.478,0.885,2.791,2.256,3.344c0.442,0.179,0.903,0.265,1.358,0.265c0.958,0,1.892-0.382,2.587-1.102L37.5,101.809
		h23.321c5.494,0,9.965-4.469,9.965-9.964v-2.451h21.833l14.346,14.846c0.695,0.721,1.631,1.105,2.589,1.105
		c0.455,0,0.916-0.087,1.358-0.266c1.371-0.554,2.256-1.866,2.256-3.344v-12.34h4.868c5.494,0,9.965-4.471,9.965-9.965V41.286
		C128,35.792,123.529,31.322,118.035,31.322z M41.119,20.205c0-3.853,3.135-6.988,6.988-6.988h52.975
		c3.853,0,6.988,3.134,6.988,6.988v11.117H60.824c-5.496,0-9.967,4.472-9.967,9.968v2.448h-9.738V20.205z M67.81,91.845
		c0,3.853-3.135,6.987-6.988,6.987H36.869c-0.404,0-0.789,0.164-1.07,0.453l-14.786,15.304c-0.259,0.265-0.542,0.202-0.69,0.145
		c-0.147-0.06-0.394-0.215-0.394-0.584v-13.83c0-0.823-0.666-1.488-1.488-1.488H9.965c-3.853,0-6.988-3.134-6.988-6.987V53.702
		c0-3.853,3.135-6.988,6.988-6.988h50.856c3.853,0,6.988,3.134,6.988,6.988V91.845z M125.023,79.43c0,3.853-3.135,6.988-6.988,6.988
		h-6.356c-0.823,0-1.488,0.666-1.488,1.488v13.828c0,0.371-0.247,0.525-0.395,0.584c-0.147,0.061-0.433,0.119-0.69-0.147
		L94.32,86.871c-0.281-0.289-0.666-0.453-1.07-0.453H70.786V53.702c0-5.494-4.471-9.964-9.965-9.964h-6.987V41.29
		c0-3.855,3.135-6.991,6.99-6.991h57.211c3.853,0,6.988,3.134,6.988,6.988V79.43z M13.938,81.616h42.116v2.977H13.938V81.616z
		 M13.938,71.02h42.116v2.977H13.938V71.02z M13.938,60.425h42.116v2.977H13.938V60.425z"/>
</g>
<g id="Layer_1">
</g>
</svg>
