<svg xmlns="http://www.w3.org/2000/svg" viewBox="0 0 64 64"><defs><style>.cls-1{fill:none;stroke:#3cc611;stroke-linecap:round;stroke-linejoin:round;stroke-width:2px;}</style></defs><title>Asset 18</title><g id="Layer_2" data-name="Layer 2"><g id="Layer_1-2" data-name="Layer 1"><g id="savings"><circle class="cls-1" cx="41" cy="10" r="9"/><circle class="cls-1" cx="57" cy="25" r="3"/><path class="cls-1" d="M57,28c5,0,6-3,6-3"/><path class="cls-1" d="M53,32s7,1,7-7"/><line class="cls-1" x1="23" y1="26" x2="37" y2="26"/><path class="cls-1" d="M28,16.11A44.5,44.5,0,0,0,23,17c-2-4-8-5-12-4l2,9A21,21,0,0,0,7,33L1,32,2,45l5-1a19.51,19.51,0,0,0,9,12l-1,7H25V59a28.89,28.89,0,0,0,10,0v4H45l-1-7c5.46-3.28,9-9.21,9-18,0-6.46-1.83-11.43-5-15"/></g></g></g></svg>