<svg xmlns="http://www.w3.org/2000/svg" viewBox="0 0 90 90" x="0px" y="0px"><style>path {fill:#3cc611;}</style><title>line_tinyhouse</title><path d="M71.92,58.72a2.19,2.19,0,1,0,2.19,2.19A2.19,2.19,0,0,0,71.92,58.72Zm0,2.68a.49.49,0,1,1,.49-.49A.49.49,0,0,1,71.92,61.4Z"/><path d="M29.36,62.71h11.1v.91h7.19V47.29H40.46v.91H29.36v-.91H22.17V63.62h7.19Zm0-6.41h4.81V61H29.36ZM35.87,61V56.3h4.59V61ZM46,61.92H42.16V49H46ZM40.46,54.6H35.87V49.9h4.59Zm-6.29-4.7v4.7H29.36V49.9ZM23.87,49h3.79V61.92H23.87Z"/><path d="M82,77V44.43h6.4v-28H11.65v28h4.57V78.71H24a5.42,5.42,0,0,0,10.79,0h1.55a5.42,5.42,0,0,0,10.79,0h13v4h1.7V81.21H74.76v1.52h1.7v-4h9.28v4h1.7V75.05a1.77,1.77,0,1,0-1.7,0v2ZM61.83,77V43.8l6.46-11.33L74.76,43.8V77ZM21.12,42.73V18.12h6.93V42.73Zm8.63-24.61h6.92V42.73H29.75Zm8.62,0H45.3V42.73H38.37Zm8.63,0h6.92V42.73H47Zm8.62,0h7.12v3.1H59.47v8.1h3.27v9.45l-2.26,4H55.62Zm12.83,11.2h4.22v7.39Zm-.32,0-3.69,6.47V29.32Zm-7-1.7v-4.7H75.94v4.7Zm3.27-6.4v-3.1h8.23v3.1Zm9.93,18.47V29.32h3.27v-8.1H74.37v-3.1H80.7V42.73H76.1Zm12.28,3H82.4V18.12h4.25Zm-73.3,0V18.12h6.07V42.73H13.35Zm4.57,1.7H60.13V77H47.07a5.42,5.42,0,0,0-10.6,0H34.72a5.42,5.42,0,0,0-10.6,0h-6.2ZM38.05,78.16a3.72,3.72,0,1,1,3.72,3.72A3.73,3.73,0,0,1,38.05,78.16Zm-4.91,0a3.72,3.72,0,1,1-3.72-3.72A3.73,3.73,0,0,1,33.14,78.16Zm41.62,1.35H61.83v-.8H74.76Zm1.7-2.5V44.43h3.79V77Zm10.13-3.56a.07.07,0,0,1,.06.07l-.06.06Z"/></svg>