<?xml version="1.0" standalone="no"?>
<!DOCTYPE svg PUBLIC "-//W3C//DTD SVG 20010904//EN"
 "http://www.w3.org/TR/2001/REC-SVG-20010904/DTD/svg10.dtd">
<svg version="1.0" xmlns="http://www.w3.org/2000/svg"
 width="618.000000pt" height="618.000000pt" viewBox="0 0 618.000000 618.000000"
 preserveAspectRatio="xMidYMid meet">
<metadata>
Created by potrace 1.11, written by Peter Selinger 2001-2013
</metadata>
<g transform="translate(0.000000,618.000000) scale(0.100000,-0.100000)"
fill="#000000" stroke="none">
<path d="M2607 5658 c-19 -40 -78 -161 -130 -268 -189 -389 -247 -509 -352
-725 -59 -121 -138 -283 -175 -360 -37 -77 -111 -230 -165 -340 -54 -110 -126
-258 -160 -330 -35 -71 -107 -220 -160 -330 -100 -205 -202 -415 -342 -705
-126 -259 -222 -456 -343 -705 -62 -126 -134 -276 -161 -333 l-48 -102 63 0
63 0 78 163 c74 152 191 393 392 807 47 96 120 247 163 335 112 232 224 462
335 690 169 348 292 601 493 1015 38 80 124 258 191 395 67 138 163 334 213
436 l90 187 53 -107 c29 -58 152 -308 275 -556 122 -247 249 -505 281 -571 56
-115 61 -122 92 -125 17 -2 46 -2 63 1 l31 5 -396 797 c-218 439 -399 798
-402 798 -4 0 -23 -33 -42 -72z"/>
<path d="M4040 5217 c-20 -17 -69 -61 -110 -97 -41 -36 -95 -83 -120 -105 -25
-22 -47 -41 -49 -42 -2 -1 -5 -16 -6 -33 -5 -57 -1 -55 165 94 59 53 58 54 56
-38 -1 -71 -4 -88 -21 -103 -11 -10 -54 -47 -95 -83 -107 -93 -104 -90 -105
-127 -2 -47 -10 -51 116 59 86 75 102 88 104 88 8 0 -2 -158 -10 -170 -6 -8
-48 -48 -95 -89 -47 -41 -91 -80 -99 -87 -13 -12 -23 -84 -12 -84 3 0 52 41
108 90 56 50 104 90 106 90 2 0 3 -37 3 -83 l-1 -83 -40 -35 c-22 -20 -58 -51
-80 -70 -91 -77 -98 -86 -100 -123 -1 -20 1 -36 3 -36 3 0 51 41 108 90 56 50
104 90 106 90 3 0 5 -36 5 -80 l1 -80 -76 -68 c-42 -37 -91 -81 -110 -97 -25
-23 -35 -40 -36 -67 -3 -42 2 -41 56 7 18 17 63 56 100 88 l66 57 0 -84 0 -85
-71 -63 c-144 -126 -151 -134 -152 -172 -2 -41 -1 -41 101 51 38 34 81 70 95
82 l26 20 0 -1062 c0 -1141 2 -1099 -50 -1155 -70 -76 -202 -75 -269 2 -49 55
-48 45 -48 720 l0 634 -45 4 c-24 2 -49 2 -55 0 -14 -5 -14 -1234 1 -1302 14
-63 63 -137 118 -174 151 -102 351 -45 430 123 l26 56 0 1021 c0 937 1 1021
16 1010 9 -6 48 -39 86 -74 39 -34 82 -72 97 -83 l26 -20 -1 38 c0 36 -7 44
-110 133 -60 52 -109 99 -110 105 -4 41 -3 155 2 155 6 0 78 -62 171 -146 20
-19 40 -34 43 -34 9 0 6 78 -4 82 -7 3 -85 70 -180 154 -34 31 -35 33 -36 113
0 44 1 81 4 81 2 0 50 -40 107 -90 57 -49 106 -90 109 -90 3 0 5 15 5 34 0 30
-10 43 -101 122 -56 49 -106 92 -111 95 -11 7 -18 168 -8 174 3 2 23 -12 45
-32 22 -19 56 -49 75 -65 19 -17 50 -45 68 -61 l32 -31 0 40 c0 38 -5 44 -112
140 l-113 100 0 82 c0 45 2 82 5 82 3 0 23 -17 45 -38 22 -20 70 -64 108 -96
l67 -58 0 39 c0 31 -6 45 -27 63 -45 37 -105 90 -152 133 l-44 40 -1 83 c-1
72 1 81 14 71 15 -11 146 -125 185 -160 20 -18 20 -18 23 19 2 26 -2 42 -12
50 -9 6 -49 41 -89 77 -41 37 -84 75 -97 85 -22 18 -23 26 -24 120 0 56 -2
102 -5 102 -3 0 -22 -15 -41 -33z"/>
<path d="M2401 4010 c-32 -4 -45 -10 -47 -22 -3 -22 11 -31 47 -30 16 0 29 -2
30 -6 4 -28 3 -646 -1 -652 -3 -4 -16 -8 -30 -8 -43 0 -46 -1 -46 -27 0 -16 6
-25 16 -26 76 -4 184 1 192 9 5 5 8 18 6 28 -3 15 -11 19 -41 17 l-37 -3 0
336 c0 262 3 335 13 333 44 -6 63 2 65 26 1 21 -3 25 -26 26 -15 0 -43 1 -62
2 -19 1 -55 0 -79 -3z"/>
<path d="M1985 3988 c1 -13 3 -26 4 -29 0 -3 22 -5 49 -4 26 1 52 0 57 -2 7
-2 10 -124 10 -354 0 -193 2 -354 5 -357 3 -4 15 -7 28 -8 19 0 22 4 23 40 0
23 0 185 0 362 l1 320 51 -1 c66 -2 74 1 72 28 -2 22 -5 22 -152 25 l-150 3 2
-23z"/>
<path d="M2645 3628 c1 -211 2 -386 3 -389 1 -3 13 -4 27 -1 l25 4 1 287 1
286 23 -70 c30 -91 130 -408 146 -462 11 -38 16 -43 41 -43 l28 0 0 385 0 385
-27 0 -28 0 1 -280 c0 -154 -3 -277 -7 -273 -4 5 -45 130 -92 278 -85 269 -85
270 -114 273 l-30 3 2 -383z"/>
<path d="M3030 3996 c0 -8 7 -42 16 -75 8 -34 17 -69 19 -78 1 -10 13 -58 25
-108 26 -108 24 -99 47 -205 12 -53 19 -122 18 -185 0 -55 4 -103 8 -106 5 -4
18 -4 28 -2 17 5 19 16 19 110 0 77 7 134 26 216 14 62 27 119 29 127 2 8 17
74 34 145 17 72 33 140 36 153 5 18 1 22 -20 22 -14 0 -27 -6 -29 -12 -2 -7
-14 -58 -26 -113 -36 -160 -78 -331 -80 -320 -2 14 -5 26 -39 167 -33 136 -35
146 -52 226 -10 45 -15 52 -35 52 -14 0 -24 -6 -24 -14z"/>
<path d="M2959 2976 c-89 -24 -175 -109 -201 -200 -8 -29 -11 -194 -11 -566
l0 -525 26 -56 c64 -136 205 -200 353 -159 61 17 132 77 168 140 l31 55 3 534
c3 601 3 603 -67 682 -78 89 -191 124 -302 95z m183 -131 c24 -16 47 -43 59
-68 17 -39 19 -73 19 -555 0 -559 1 -550 -58 -605 -101 -95 -265 -48 -300 87
-4 17 -8 258 -7 536 1 445 3 509 17 535 54 100 176 132 270 70z"/>
<path d="M4431 2968 c-66 -25 -135 -95 -161 -165 -17 -46 -20 -78 -20 -221 0
-92 5 -183 10 -202 16 -59 64 -124 115 -158 53 -35 92 -48 174 -56 67 -6 126
-44 155 -101 18 -36 20 -57 20 -200 -1 -167 -5 -190 -51 -241 -46 -53 -148
-73 -208 -41 -81 43 -106 94 -108 220 l-2 82 -54 3 -53 3 4 -113 c3 -102 6
-118 33 -167 96 -174 323 -207 460 -66 76 78 87 119 87 322 -1 183 -9 226 -59
292 -55 72 -121 108 -216 118 -97 9 -161 50 -187 118 -13 34 -17 316 -5 355
13 42 54 89 98 111 84 43 191 7 240 -82 15 -26 20 -55 20 -126 l1 -91 44 -4
c24 -2 48 0 54 3 11 7 14 153 4 196 -39 177 -223 275 -395 211z"/>
<path d="M5037 2981 c-6 -2 -14 -7 -17 -12 -3 -4 -5 -344 -5 -756 l1 -748 292
-3 292 -2 0 55 0 55 -238 0 -237 0 0 313 0 312 160 2 c268 2 240 -2 238 35 -1
18 -2 42 -2 54 -1 20 -5 21 -198 21 l-198 -1 0 282 0 282 45 1 c25 0 132 0
238 0 l192 0 0 54 c0 53 -1 55 -27 55 -227 4 -526 4 -536 1z"/>
<path d="M1987 2973 c-2 -5 -3 -345 -3 -758 l1 -750 53 -3 52 -3 1 53 c0 29 0
115 1 191 l0 137 184 0 184 0 0 -190 0 -190 55 0 55 0 0 760 0 760 -55 0 -55
0 0 -515 0 -515 -184 0 -184 0 -1 493 c0 270 0 502 0 515 -1 20 -6 22 -50 22
-28 0 -52 -3 -54 -7z"/>
<path d="M3993 1311 c-119 -41 -226 -165 -227 -263 0 -56 49 -103 136 -129 37
-12 83 -31 100 -43 29 -19 33 -27 31 -61 -4 -66 -71 -111 -119 -80 -15 10 -20
21 -17 39 4 20 0 26 -20 31 -75 19 -56 -59 23 -100 40 -21 112 -21 142 -1 32
23 58 68 58 102 0 59 -51 100 -170 139 -30 10 -66 25 -79 33 -21 14 -23 21
-17 69 11 93 64 155 176 207 107 50 163 22 114 -56 -30 -46 -30 -48 -1 -48 27
0 64 35 68 65 7 44 -10 73 -54 94 -52 25 -76 26 -144 2z"/>
<path d="M5061 1277 l-12 -53 -47 -3 c-26 -1 -56 -4 -67 -6 -11 -2 -23 -4 -27
-4 -5 -1 -8 -5 -8 -10 0 -14 51 -28 93 -24 20 2 37 2 37 0 0 -2 -9 -46 -20
-98 -11 -52 -20 -105 -20 -118 0 -38 -40 -89 -88 -112 -37 -18 -47 -20 -70 -9
l-27 12 35 18 c44 23 89 70 95 98 3 16 -4 26 -25 37 -16 8 -39 15 -50 15 -34
0 -78 -31 -95 -66 -51 -109 49 -190 172 -139 20 8 36 15 37 15 1 0 2 -24 2
-52 0 -208 66 -325 193 -344 42 -7 43 -6 32 15 -7 12 -33 31 -58 43 -71 33
-88 79 -90 243 0 72 3 164 8 205 11 90 38 222 48 233 4 4 94 8 200 9 105 1
194 5 196 8 3 4 -3 14 -13 23 -15 13 -45 16 -195 14 -97 -2 -177 0 -177 3 0 3
5 21 10 40 8 29 7 37 -7 48 -34 25 -49 15 -62 -41z m-201 -332 c-37 -38 -50
-43 -50 -21 0 18 47 56 68 56 11 0 5 -11 -18 -35z"/>
<path d="M4626 1038 c10 -33 24 -48 45 -48 19 0 24 10 19 40 -3 19 -19 30 -48
30 -20 0 -22 -4 -16 -22z"/>
<path d="M4451 1004 c-52 -46 -78 -112 -62 -153 13 -31 47 -51 87 -51 28 0 70
26 122 74 31 29 32 29 33 8 1 -12 2 -30 3 -40 2 -26 25 -52 47 -52 17 0 19 8
19 79 0 51 -4 82 -12 88 -21 16 -58 22 -59 10 0 -14 -141 -117 -170 -124 -46
-12 4 109 58 138 28 15 30 35 4 49 -27 14 -26 14 -70 -26z"/>
<path d="M5327 978 c-19 -29 -47 -64 -62 -78 l-28 -25 7 52 c6 47 5 52 -15 58
-31 10 -49 -18 -49 -76 0 -50 9 -63 53 -74 22 -6 36 -1 65 22 57 45 62 47 62
21 0 -14 -27 -51 -70 -98 -143 -154 -159 -264 -48 -321 88 -45 161 -17 194 76
13 35 10 156 -5 240 -8 40 -8 62 0 71 10 12 80 61 143 99 28 17 29 18 11 31
-23 17 -40 18 -57 1 -20 -20 -105 -67 -110 -62 -3 3 -3 25 -1 48 4 39 2 44
-22 55 -14 7 -28 12 -29 12 -2 0 -20 -24 -39 -52z m56 -305 c3 -58 -1 -102 -9
-121 -29 -70 -98 -95 -130 -47 -25 39 -2 125 53 195 50 64 67 80 74 73 5 -5
11 -50 12 -100z"/>
<path d="M4221 958 c-12 -10 -21 -22 -22 -26 0 -4 -2 -18 -3 -30 -2 -13 7 -38
18 -55 43 -64 146 -40 148 33 1 38 -18 59 -76 81 -43 16 -46 16 -65 -3z m84
-55 c2 -30 -31 -61 -47 -45 -8 8 -8 19 2 42 15 35 42 37 45 3z"/>
</g>
</svg>
