<?xml version="1.0" standalone="no"?>
<!DOCTYPE svg PUBLIC "-//W3C//DTD SVG 20010904//EN"
 "http://www.w3.org/TR/2001/REC-SVG-20010904/DTD/svg10.dtd">
<svg version="1.0" xmlns="http://www.w3.org/2000/svg"
 width="118.000000pt" height="118.000000pt" viewBox="0 0 118.000000 118.000000"
 preserveAspectRatio="xMidYMid meet">
<metadata>
Created by potrace 1.11, written by Peter Selinger 2001-2013
</metadata>
<g transform="translate(0.000000,118.000000) scale(0.100000,-0.100000)"
fill="#000000" stroke="none">
<path d="M56 1113 c-3 -4 -6 -244 -6 -535 l0 -528 53 -1 c28 0 269 -1 534 -2
l483 -2 1 25 c1 31 1 1032 0 1042 -1 8 -1057 9 -1065 1z m1009 -526 c0 -258
-2 -472 -5 -475 -3 -4 -21 -7 -41 -8 l-36 -1 -1 126 c-1 212 2 193 -29 189
l-28 -3 -1 -145 c-1 -80 -2 -150 -3 -155 -1 -7 -118 -10 -333 -10 l-333 0 -3
190 -2 190 81 85 c44 47 117 122 160 167 l80 81 82 -85 c150 -156 186 -196
183 -202 -2 -3 -97 -5 -210 -5 l-206 2 -6 -25 c-4 -13 -4 -26 -2 -29 3 -2 131
-3 286 -2 l281 3 -77 81 c-42 44 -134 141 -204 215 l-128 133 -56 -59 c-31
-33 -116 -122 -189 -197 l-133 -136 0 -169 c-1 -92 -1 -184 -1 -204 -1 -34 -2
-35 -38 -34 l-38 1 -3 477 -2 477 477 -2 478 -3 0 -468z"/>
</g>
</svg>
