<?xml version="1.0" encoding="utf-8"?>
<!-- Generator: Adobe Illustrator 22.1.0, SVG Export Plug-In . SVG Version: 6.00 Build 0)  -->
<svg version="1.1" id="Calque_1" xmlns="http://www.w3.org/2000/svg" xmlns:xlink="http://www.w3.org/1999/xlink" x="0px" y="0px"
	 viewBox="0 0 29.6 29.6" style="enable-background:new 0 0 29.6 29.6;" xml:space="preserve">
<style type="text/css">
	.st0{clip-path:url(#SVGID_2_);fill:#5E452B;}
</style>
<g>
	<g>
		<defs>
			<rect id="SVGID_1_" x="1.1" y="11.5" width="26.6" height="8.9"/>
		</defs>
		<clipPath id="SVGID_2_">
			<use xlink:href="#SVGID_1_"  style="overflow:visible;"/>
		</clipPath>
		<path class="st0" d="M27.5,16.2c-2.4,1.4-4.8,2.8-7.1,4.1c-0.3,0.1-0.5-0.1-0.4-0.4c0.5-1,1-2,1.5-3H2c-0.5,0-1-0.4-1-1l0,0
			c0-0.5,0.4-1,1-1h19.4c-0.5-1-1-2-1.5-3c-0.1-0.3,0.2-0.5,0.4-0.4c2.4,1.4,4.8,2.8,7.1,4.1C27.7,15.8,27.7,16.1,27.5,16.2"/>
	</g>
</g>
</svg>
