<?xml version="1.0" encoding="utf-8"?>
<!-- Generator: Adobe Illustrator 22.1.0, SVG Export Plug-In . SVG Version: 6.00 Build 0)  -->
<svg version="1.1" id="Calque_1" xmlns="http://www.w3.org/2000/svg" xmlns:xlink="http://www.w3.org/1999/xlink" x="0px" y="0px"
	 viewBox="0 0 31.6 31.6" style="enable-background:new 0 0 31.6 31.6;" xml:space="preserve">
<style type="text/css">
	.st0{clip-path:url(#SVGID_2_);}
	.st1{clip-path:url(#SVGID_4_);}
	.st2{opacity:0.9;}
	.st3{clip-path:url(#SVGID_7_);}
	.st4{clip-path:url(#SVGID_8_);fill:#E8E3DB;}
	.st5{clip-path:url(#SVGID_8_);fill:none;stroke:#E8E3DB;stroke-miterlimit:10;}
</style>
<g>
	<g>
		<defs>
			<rect id="SVGID_1_" x="1.3" y="3.8" width="28.9" height="23.9"/>
		</defs>
		<clipPath id="SVGID_2_">
			<use xlink:href="#SVGID_1_"  style="overflow:visible;"/>
		</clipPath>
		<g class="st0">
			<g>
				<defs>
					<rect id="SVGID_3_" x="1.3" y="3.8" width="28.9" height="23.9"/>
				</defs>
				<clipPath id="SVGID_4_">
					<use xlink:href="#SVGID_3_"  style="overflow:visible;"/>
				</clipPath>
				<g class="st1">
					<g class="st2">
						<g>
							<defs>
								<rect id="SVGID_5_" x="-7.7" y="-3.2" width="46.9" height="31.9"/>
							</defs>
							<defs>
								<rect id="SVGID_6_" x="-7.7" y="-3.2" width="46.9" height="31.9"/>
							</defs>
							<clipPath id="SVGID_7_">
								<use xlink:href="#SVGID_5_"  style="overflow:visible;"/>
							</clipPath>
							<clipPath id="SVGID_8_" class="st3">
								<use xlink:href="#SVGID_6_"  style="overflow:visible;"/>
							</clipPath>
							<path class="st4" d="M2.2,26.3c-0.2,0-0.4,0.2-0.4,0.4s0.2,0.4,0.4,0.4h27.1c0.2,0,0.4-0.2,0.4-0.4s-0.2-0.4-0.4-0.4H2.2z
								 M2.2,15.3c-0.2,0-0.4,0.2-0.4,0.4s0.2,0.4,0.4,0.4h27.1c0.2,0,0.4-0.2,0.4-0.4s-0.2-0.4-0.4-0.4H2.2z M2.2,4.3
								C2,4.3,1.8,4.5,1.8,4.7S2,5.1,2.2,5.1h27.1c0.2,0,0.4-0.2,0.4-0.4s-0.2-0.4-0.4-0.4H2.2z"/>
							<path class="st5" d="M2.2,26.3c-0.2,0-0.4,0.2-0.4,0.4s0.2,0.4,0.4,0.4h27.1c0.2,0,0.4-0.2,0.4-0.4s-0.2-0.4-0.4-0.4H2.2z
								 M2.2,15.3c-0.2,0-0.4,0.2-0.4,0.4s0.2,0.4,0.4,0.4h27.1c0.2,0,0.4-0.2,0.4-0.4s-0.2-0.4-0.4-0.4H2.2z M2.2,4.3
								C2,4.3,1.8,4.5,1.8,4.7S2,5.1,2.2,5.1h27.1c0.2,0,0.4-0.2,0.4-0.4s-0.2-0.4-0.4-0.4H2.2z"/>
						</g>
					</g>
				</g>
			</g>
		</g>
	</g>
</g>
</svg>
