<?xml version="1.0" encoding="utf-8"?>
<!-- Generator: Adobe Illustrator 22.1.0, SVG Export Plug-In . SVG Version: 6.00 Build 0)  -->
<svg version="1.1" id="Calque_1" xmlns="http://www.w3.org/2000/svg" xmlns:xlink="http://www.w3.org/1999/xlink" x="0px" y="0px"
	 viewBox="0 0 15.6 15.6" style="enable-background:new 0 0 15.6 15.6;" xml:space="preserve">
<style type="text/css">
	.st0{clip-path:url(#SVGID_2_);fill:#5E452B;}
</style>
<g>
	<g>
		<defs>
			<rect id="SVGID_1_" x="3" y="3" width="9.6" height="9.4"/>
		</defs>
		<clipPath id="SVGID_2_">
			<use xlink:href="#SVGID_1_"  style="overflow:visible;"/>
		</clipPath>
		<path class="st0" d="M9.3,9C9.2,9,9.1,9.1,9.1,9.2v2.4c0,0.1,0.1,0.2,0.2,0.2h2.4c0.1,0,0.2-0.1,0.2-0.2V9.3
			c0-0.1-0.1-0.2-0.2-0.2L9.3,9L9.3,9z M11.7,12.5H9.3c-0.5,0-0.9-0.4-0.9-0.9V9.3c0-0.5,0.4-0.9,0.9-0.9h2.4c0.5,0,0.9,0.4,0.9,0.9
			v2.4C12.5,12.1,12.1,12.5,11.7,12.5 M3.9,9C3.8,9,3.7,9.1,3.7,9.2v2.4c0,0.1,0.1,0.2,0.2,0.2h2.4c0.1,0,0.2-0.1,0.2-0.2V9.3
			c0-0.1-0.1-0.2-0.2-0.2L3.9,9L3.9,9z M6.2,12.5H3.8c-0.5,0-0.9-0.4-0.9-0.9V9.3c0-0.5,0.4-0.9,0.9-0.9h2.4c0.5,0,0.9,0.4,0.9,0.9
			v2.4C7.1,12.1,6.7,12.5,6.2,12.5 M9.3,3.7c-0.1,0-0.2,0.1-0.2,0.2v2.4c0,0.1,0.1,0.2,0.2,0.2h2.4c0.1,0,0.2-0.1,0.2-0.2V3.9
			c0-0.1-0.1-0.2-0.2-0.2H9.3z M11.7,7.2H9.3c-0.5,0-0.9-0.4-0.9-0.9V3.9C8.4,3.4,8.8,3,9.3,3h2.4c0.5,0,0.9,0.4,0.9,0.9v2.4
			C12.5,6.8,12.1,7.2,11.7,7.2 M3.8,3.7c-0.1,0-0.2,0.1-0.2,0.2v2.4c0,0.1,0.1,0.2,0.2,0.2h2.4c0.1,0,0.2-0.1,0.2-0.2V3.9
			c0-0.1-0.1-0.2-0.2-0.2H3.8z M6.2,7.2H3.8c-0.5,0-0.9-0.4-0.9-0.9V3.9C2.9,3.4,3.3,3,3.8,3h2.4c0.5,0,0.9,0.4,0.9,0.9v2.4
			C7.1,6.8,6.7,7.2,6.2,7.2"/>
	</g>
</g>
</svg>
