<?xml version="1.0" encoding="utf-8"?>
<!-- Generator: Adobe Illustrator 22.1.0, SVG Export Plug-In . SVG Version: 6.00 Build 0)  -->
<svg version="1.1" id="Calque_1" xmlns="http://www.w3.org/2000/svg" xmlns:xlink="http://www.w3.org/1999/xlink" x="0px" y="0px"
	 viewBox="0 0 22.5 22.5" style="enable-background:new 0 0 22.5 22.5;" xml:space="preserve">
<style type="text/css">
	.st0{clip-path:url(#SVGID_2_);fill:#5E452B;}
	.st1{clip-path:url(#SVGID_4_);fill:none;stroke:#5E452B;stroke-width:0.5;stroke-miterlimit:10;}
</style>
<g>
	<g>
		<defs>
			<rect id="SVGID_1_" x="1.2" y="2" width="19.3" height="19.3"/>
		</defs>
		<clipPath id="SVGID_2_">
			<use xlink:href="#SVGID_1_"  style="overflow:visible;"/>
		</clipPath>
		<path class="st0" d="M10.9,3.1c-2.3,0-4.4,0.9-6,2.5c-1.7,1.7-2.6,4.1-2.5,6.5c0.2,4.3,3.6,7.7,7.8,8.1c1.7,0.1,3.4-0.2,4.9-1.1
			l0.2-0.1l4,1l-1.1-3.9l0.1-0.2c0.9-1.5,1.3-3.2,1.1-5c-0.3-4.3-3.8-7.7-8.1-7.9C11.2,3.1,11,3.1,10.9,3.1 M10.9,21
			c-0.3,0-0.5,0-0.8,0c-4.7-0.4-8.4-4.2-8.6-8.9C1.4,9.5,2.4,6.9,4.2,5c1.9-1.9,4.5-2.9,7.1-2.7c4.7,0.2,8.5,4,8.9,8.7
			c0.1,1.9-0.3,3.7-1.2,5.3l1.1,4.1c0.1,0.2,0,0.4-0.1,0.5s-0.3,0.2-0.5,0.1l-4.1-1.1C14,20.6,12.4,21,10.9,21"/>
	</g>
	<g>
		<defs>
			<rect id="SVGID_3_" x="1.2" y="2" width="19.3" height="19.3"/>
		</defs>
		<clipPath id="SVGID_4_">
			<use xlink:href="#SVGID_3_"  style="overflow:visible;"/>
		</clipPath>
		<path class="st1" d="M10.9,3.1c-2.3,0-4.4,0.9-6,2.5c-1.7,1.7-2.6,4.1-2.5,6.5c0.2,4.3,3.6,7.7,7.8,8.1c1.7,0.1,3.4-0.2,4.9-1.1
			l0.2-0.1l4,1l-1.1-3.9l0.1-0.2c0.9-1.5,1.3-3.2,1.1-5c-0.3-4.3-3.8-7.7-8.1-7.9C11.2,3.1,11,3.1,10.9,3.1z M10.9,21
			c-0.3,0-0.5,0-0.8,0c-4.7-0.4-8.4-4.2-8.6-8.9C1.4,9.5,2.4,6.9,4.2,5c1.9-1.9,4.5-2.9,7.1-2.7c4.7,0.2,8.5,4,8.9,8.7
			c0.1,1.9-0.3,3.7-1.2,5.3l1.1,4.1c0.1,0.2,0,0.4-0.1,0.5s-0.3,0.2-0.5,0.1l-4.1-1.1C14,20.6,12.4,21,10.9,21z"/>
	</g>
</g>
</svg>
