<?xml version="1.0" encoding="utf-8"?>
<!-- Generator: Adobe Illustrator 22.1.0, SVG Export Plug-In . SVG Version: 6.00 Build 0)  -->
<svg version="1.1" id="Calque_1" xmlns="http://www.w3.org/2000/svg" xmlns:xlink="http://www.w3.org/1999/xlink" x="0px" y="0px"
	 viewBox="0 0 44.9 44.9" style="enable-background:new 0 0 44.9 44.9;" xml:space="preserve">
<style type="text/css">
	.st0{clip-path:url(#SVGID_2_);fill:#E8E3DB;}
</style>
<g>
	<defs>
		<rect id="SVGID_1_" x="4.1" y="4.1" width="36.7" height="36.7"/>
	</defs>
	<clipPath id="SVGID_2_">
		<use xlink:href="#SVGID_1_"  style="overflow:visible;"/>
	</clipPath>
	<path class="st0" d="M22.4,5C12.8,5,5,12.8,5,22.5s7.8,17.5,17.5,17.5c9.6,0,17.5-7.8,17.5-17.5S32.1,5,22.4,5 M22.4,40.8
		c-10.1,0-18.4-8.2-18.4-18.4S12.3,4.1,22.4,4.1s18.4,8.2,18.4,18.4S32.6,40.8,22.4,40.8"/>
	<path class="st0" d="M18.6,19.7h1.7v-1.6c0-0.7,0-1.8,0.5-2.5c0.5-0.7,1.3-1.2,2.6-1.2c2.1,0,3,0.3,3,0.3l-0.4,2.5
		c0,0-0.7-0.2-1.3-0.2c-0.6,0-1.2,0.2-1.2,0.9v1.9H26l-0.2,2.4h-2.5v8.4h-3.1v-8.4h-1.7V19.7z"/>
</g>
</svg>
