<?xml version="1.0" encoding="utf-8"?>
<!-- Generator: Adobe Illustrator 22.1.0, SVG Export Plug-In . SVG Version: 6.00 Build 0)  -->
<svg version="1.1" id="Calque_1" xmlns="http://www.w3.org/2000/svg" xmlns:xlink="http://www.w3.org/1999/xlink" x="0px" y="0px"
	 viewBox="0 0 24 24" style="enable-background:new 0 0 24 24;" xml:space="preserve">
<style type="text/css">
	.st0{clip-path:url(#SVGID_2_);fill:#5E452B;}
</style>
<g>
	<g>
		<defs>
			<rect id="SVGID_1_" x="1.4" y="2.3" width="21.2" height="19.4"/>
		</defs>
		<clipPath id="SVGID_2_">
			<use xlink:href="#SVGID_1_"  style="overflow:visible;"/>
		</clipPath>
		<path class="st0" d="M11.9,4.4l0.3-0.3c2.4-2.4,6.2-2.4,8.5,0c2.4,2.4,2.4,6.4,0,8.8l-8.3,8.6c-0.3,0.3-0.7,0.3-1,0l-8.3-8.6
			c-2.4-2.4-2.4-6.4,0-8.8s6.2-2.4,8.5,0L11.9,4.4z M11.9,20l7.9-8.1c1.8-1.9,1.8-4.9,0-6.8s-4.8-1.9-6.6,0l-0.8,0.8
			c-0.3,0.3-0.7,0.3-1,0l-0.7-0.8c-1.8-1.9-4.8-1.9-6.6,0s-1.8,4.9,0,6.8L11.9,20z"/>
	</g>
</g>
</svg>
