<?xml version="1.0" encoding="utf-8"?>
<!-- Generator: Adobe Illustrator 22.1.0, SVG Export Plug-In . SVG Version: 6.00 Build 0)  -->
<svg version="1.1" id="Calque_1" xmlns="http://www.w3.org/2000/svg" xmlns:xlink="http://www.w3.org/1999/xlink" x="0px" y="0px"
	 viewBox="0 0 44.9 44.9" style="enable-background:new 0 0 44.9 44.9;" xml:space="preserve">
<style type="text/css">
	.st0{clip-path:url(#SVGID_2_);fill:#5E452B;}
</style>
<g>
	<defs>
		<rect id="SVGID_1_" x="11.4" y="11.4" width="22.1" height="22.1"/>
	</defs>
	<clipPath id="SVGID_2_">
		<use xlink:href="#SVGID_1_"  style="overflow:visible;"/>
	</clipPath>
	<path class="st0" d="M22.5,11.4c-6.1,0-11,5-11,11.1c0,4.5,2.7,8.4,6.6,10.1c0-0.8,0-1.7,0.2-2.5c0.2-0.9,1.4-6,1.4-6
		s-0.4-0.7-0.4-1.7c0-1.6,0.9-2.9,2.1-2.9c1,0,1.5,0.8,1.5,1.7c0,1-0.6,2.5-1,3.9c-0.3,1.2,0.6,2.1,1.7,2.1c2.1,0,3.5-2.7,3.5-5.9
		c0-2.4-1.6-4.2-4.6-4.2c-3.3,0-5.4,2.5-5.4,5.3c0,1,0.3,1.6,0.7,2.2c0.2,0.2,0.2,0.3,0.2,0.6c-0.1,0.2-0.2,0.7-0.2,0.9
		c-0.1,0.3-0.3,0.4-0.6,0.3C15.7,25.6,15,23.9,15,22c0-3.1,2.6-6.9,7.9-6.9c4.2,0,7,3.1,7,6.3c0,4.3-2.4,7.6-6,7.6
		c-1.2,0-2.3-0.6-2.7-1.4c0,0-0.6,2.5-0.8,3c-0.2,0.9-0.7,1.7-1.1,2.4c1,0.3,2,0.5,3.1,0.5c6.1,0,11-5,11-11.1
		C33.5,16.3,28.5,11.4,22.5,11.4"/>
</g>
</svg>
