<?xml version="1.0" encoding="utf-8"?>
<!-- Generator: Adobe Illustrator 22.1.0, SVG Export Plug-In . SVG Version: 6.00 Build 0)  -->
<svg version="1.1" id="Calque_1" xmlns="http://www.w3.org/2000/svg" xmlns:xlink="http://www.w3.org/1999/xlink" x="0px" y="0px"
	 viewBox="0 0 44.9 44.9" style="enable-background:new 0 0 44.9 44.9;" xml:space="preserve">
<style type="text/css">
	.st0{clip-path:url(#SVGID_2_);fill:#E8E3DB;}
</style>
<g>
	<defs>
		<rect id="SVGID_1_" x="4.1" y="4.1" width="36.7" height="36.7"/>
	</defs>
	<clipPath id="SVGID_2_">
		<use xlink:href="#SVGID_1_"  style="overflow:visible;"/>
	</clipPath>
	<path class="st0" d="M22.5,5C12.8,5,5,12.8,5,22.5s7.8,17.5,17.5,17.5s17.5-7.8,17.5-17.5S32.1,5,22.5,5 M22.5,40.8
		c-10.1,0-18.4-8.2-18.4-18.4S12.3,4.1,22.5,4.1s18.4,8.2,18.4,18.4S32.6,40.8,22.5,40.8"/>
	<path class="st0" d="M22.5,14.3c-4.4,0-8,3.6-8,8.1c0,3.3,2,6.1,4.8,7.4c0-0.6,0-1.2,0.1-1.9c0.2-0.7,1-4.4,1-4.4s-0.3-0.5-0.3-1.3
		c0-1.2,0.7-2.1,1.6-2.1c0.7,0,1.1,0.6,1.1,1.2c0,0.7-0.5,1.8-0.7,2.9c-0.2,0.9,0.4,1.6,1.3,1.6c1.5,0,2.6-2,2.6-4.3
		c0-1.8-1.2-3.1-3.3-3.1c-2.4,0-4,1.8-4,3.9c0,0.7,0.2,1.2,0.5,1.6c0.1,0.2,0.2,0.2,0.1,0.4c0,0.1-0.1,0.5-0.2,0.6
		c-0.1,0.2-0.2,0.3-0.4,0.2c-1.1-0.5-1.6-1.7-1.6-3.1c0-2.3,1.9-5,5.7-5c3.1,0,5.1,2.2,5.1,4.6c0,3.2-1.8,5.5-4.3,5.5
		c-0.9,0-1.7-0.5-2-1c0,0-0.5,1.9-0.6,2.2c-0.2,0.6-0.5,1.2-0.8,1.7c0.7,0.2,1.5,0.3,2.3,0.3c4.4,0,8-3.6,8-8.1
		C30.5,17.9,26.9,14.3,22.5,14.3"/>
</g>
</svg>
