<?xml version="1.0" encoding="utf-8"?>
<!-- Generator: Adobe Illustrator 22.1.0, SVG Export Plug-In . SVG Version: 6.00 Build 0)  -->
<svg version="1.1" id="Calque_1" xmlns="http://www.w3.org/2000/svg" xmlns:xlink="http://www.w3.org/1999/xlink" x="0px" y="0px"
	 viewBox="0 0 44.9 44.9" style="enable-background:new 0 0 44.9 44.9;" xml:space="preserve">
<style type="text/css">
	.st0{clip-path:url(#SVGID_2_);fill:#E8E3DB;}
</style>
<g>
	<defs>
		<rect id="SVGID_1_" x="4.1" y="4.1" width="36.7" height="36.7"/>
	</defs>
	<clipPath id="SVGID_2_">
		<use xlink:href="#SVGID_1_"  style="overflow:visible;"/>
	</clipPath>
	<path class="st0" d="M22.5,5C12.8,5,5,12.8,5,22.5s7.8,17.5,17.5,17.5c9.6,0,17.5-7.8,17.5-17.5S32.1,5,22.5,5 M22.5,40.8
		c-10.1,0-18.4-8.2-18.4-18.4S12.3,4.1,22.5,4.1s18.4,8.2,18.4,18.4S32.6,40.8,22.5,40.8"/>
	<path class="st0" d="M27.2,26.6c0.9,0,1.7,0.8,1.7,1.7c0,0.9-0.8,1.7-1.7,1.7c-0.9,0-1.7-0.8-1.7-1.7
		C25.5,27.4,26.2,26.6,27.2,26.6 M16.3,20.5c0.9,0,1.7,0.8,1.7,1.7s-0.8,1.7-1.7,1.7c-0.9,0-1.7-0.8-1.7-1.7S15.4,20.5,16.3,20.5
		 M26.9,13.7c0.9,0,1.7,0.8,1.7,1.7c0,0.9-0.8,1.7-1.7,1.7c-0.9,0-1.7-0.8-1.7-1.7C25.2,14.4,25.9,13.7,26.9,13.7 M26.9,12.3
		c-1.7,0-3.1,1.4-3.1,3.1c0,0.5,0.1,0.9,0.3,1.3l-5.5,3.5c-0.6-0.6-1.4-1-2.3-1c-1.7,0-3.1,1.4-3.1,3.1s1.4,3.1,3.1,3.1
		c1,0,1.8-0.5,2.4-1.2l5.7,3.1c-0.1,0.3-0.2,0.7-0.2,1.1c0,1.7,1.4,3.1,3.1,3.1c1.7,0,3.1-1.4,3.1-3.1c0-1.7-1.4-3.1-3.1-3.1
		c-0.8,0-1.5,0.3-2.1,0.8l-5.8-3.2c0-0.2,0.1-0.4,0.1-0.7c0-0.3-0.1-0.6-0.1-0.8l5.7-3.6c0.5,0.4,1.2,0.7,1.9,0.7
		c1.7,0,3.1-1.4,3.1-3.1C29.9,13.7,28.5,12.3,26.9,12.3z"/>
</g>
</svg>
