<?xml version="1.0" encoding="utf-8"?>
<!-- Generator: Adobe Illustrator 22.1.0, SVG Export Plug-In . SVG Version: 6.00 Build 0)  -->
<svg version="1.1" id="Calque_1" xmlns="http://www.w3.org/2000/svg" xmlns:xlink="http://www.w3.org/1999/xlink" x="0px" y="0px"
	 viewBox="0 0 19.1 19.1" style="enable-background:new 0 0 19.1 19.1;" xml:space="preserve">
<style type="text/css">
	.st0{fill:#5E452B;}
	.st1{clip-path:url(#SVGID_2_);fill:#5E452B;}
</style>
<g>
	<rect x="0.7" y="3.7" class="st0" width="10.7" height="1.2"/>
	<g>
		<g>
			<defs>
				<rect id="SVGID_1_" x="0.7" y="3.7" width="17.7" height="11.7"/>
			</defs>
			<clipPath id="SVGID_2_">
				<use xlink:href="#SVGID_1_"  style="overflow:visible;"/>
			</clipPath>
			<path class="st1" d="M0.7,14.2h6v1.2h-6V14.2z M0.7,10.6h8.4v1.2H0.8L0.7,10.6L0.7,10.6z M0.7,7.1h9.5v1.2H0.7V7.1z M16.3,11.5
				V4.3c0-0.3-0.3-0.6-0.6-0.6c-0.3,0-0.6,0.3-0.6,0.6v7.2L14,10.4c-0.2-0.2-0.6-0.2-0.8,0c-0.2,0.2-0.2,0.6,0,0.8l2.1,2.1l0,0
				c0.1,0.1,0.3,0.2,0.4,0.2c0.2,0,0.3-0.1,0.4-0.2l0,0l0,0l2.1-2.1c0.2-0.2,0.2-0.6,0-0.8c-0.2-0.2-0.6-0.2-0.8,0L16.3,11.5z"/>
		</g>
	</g>
</g>
</svg>
