<?xml version="1.0" encoding="utf-8"?>
<!-- Generator: Adobe Illustrator 22.1.0, SVG Export Plug-In . SVG Version: 6.00 Build 0)  -->
<svg version="1.1" id="Calque_1" xmlns="http://www.w3.org/2000/svg" xmlns:xlink="http://www.w3.org/1999/xlink" x="0px" y="0px"
	 viewBox="0 0 12.7 12.7" style="enable-background:new 0 0 12.7 12.7;" xml:space="preserve">
<style type="text/css">
	.st0{clip-path:url(#SVGID_2_);fill:#5E452B;}
	.st1{clip-path:url(#SVGID_4_);fill:#5E452B;}
</style>
<g>
	<g>
		<defs>
			<rect id="SVGID_1_" x="1.4" y="0.4" width="9.9" height="11.9"/>
		</defs>
		<clipPath id="SVGID_2_">
			<use xlink:href="#SVGID_1_"  style="overflow:visible;"/>
		</clipPath>
		<path class="st0" d="M6.4,3.5c-2,0-3.6,1.7-3.6,3.7s1.6,3.7,3.6,3.7S10,9.2,10,7.2c0-0.1-0.1-0.3-0.3-0.3h-3V3.7
			C6.6,3.6,6.5,3.5,6.4,3.5"/>
	</g>
	<g>
		<defs>
			<rect id="SVGID_3_" x="1.4" y="0.4" width="9.9" height="11.9"/>
		</defs>
		<clipPath id="SVGID_4_">
			<use xlink:href="#SVGID_3_"  style="overflow:visible;"/>
		</clipPath>
		<path class="st1" d="M6.4,2.6c2.4,0,4.4,2.1,4.4,4.6s-2,4.6-4.4,4.6S1.9,9.7,1.9,7.2C1.9,4.6,3.9,2.6,6.4,2.6 M6.3,0.4
			c-0.3,0-0.5,0-0.7,0.1c-0.1,0-0.2,0.1-0.3,0.2C5.2,0.8,5.1,0.9,5.1,1c0,0.1,0.1,0.3,0.2,0.3c0.1,0.1,0.2,0.1,0.3,0.2
			c0.1,0,0.2,0.1,0.3,0.1L5.7,2.1C3.3,2.4,1.4,4.6,1.4,7.2c0,2.8,2.2,5.1,4.9,5.1s4.9-2.3,4.9-5.1c0-2.6-1.9-4.8-4.3-5.1L6.7,1.6
			c0.1,0,0.2,0,0.3-0.1c0.1,0,0.2-0.1,0.3-0.2C7.4,1.2,7.5,1.1,7.5,1c0-0.1-0.1-0.3-0.2-0.3C7.2,0.6,7.1,0.6,7,0.5
			C6.9,0.4,6.7,0.4,6.3,0.4L6.3,0.4L6.3,0.4z"/>
	</g>
</g>
</svg>
